<?xml version="1.0" encoding="UTF-8"?>
<svg width="1440px" height="68px" viewBox="0 0 1440 68" version="1.1" xmlns="http://www.w3.org/2000/svg" xmlns:xlink="http://www.w3.org/1999/xlink">
    <!-- Generator: sketchtool 49.3 (51167) - http://www.bohemiancoding.com/sketch -->
    <title>26BC4162-27EB-418F-AE8D-871E9B94B128</title>
    <desc>Created with sketchtool.</desc>
    <defs></defs>
    <g id="Home" stroke="none" stroke-width="1" fill="none" fill-rule="evenodd">
        <g id="Home-with-hovers">
            <g id="NAV">
                <g>
                    <rect id="Rectangle" fill="#141414" x="0" y="0" width="1440" height="68"></rect>
                    <g id="menu" transform="translate(195.000000, 25.000000)" fill="#FFFFFF" font-size="14" letter-spacing="0.5">
                        <text id="Home" font-family="Helvetica-Bold, Helvetica" font-weight="bold">
                            <tspan x="0" y="14">Home</tspan>
                        </text>
                        <text id="TV-Shows" font-family="Helvetica" font-weight="normal">
                            <tspan x="60" y="14">TV Shows</tspan>
                        </text>
                        <text id="Movies" font-family="Helvetica" font-weight="normal">
                            <tspan x="144" y="14">Movies</tspan>
                        </text>
                        <text id="Recently-Added" font-family="Helvetica" font-weight="normal">
                            <tspan x="210" y="14">Recently Added</tspan>
                        </text>
                        <text id="My-List" font-family="Helvetica" font-weight="normal">
                            <tspan x="332" y="14">My List</tspan>
                        </text>
                    </g>
                    <path d="M1373.69869,35.5731024 L1378.12302,39.9974319 C1378.89614,40.9392697 1378.89614,41.7967464 1378.12302,42.569862 C1377.34991,43.3429776 1376.49243,43.3429776 1375.55059,42.569862 L1370.95224,38.1070871 C1369.89492,38.6767378 1368.68522,39 1367.40002,39 C1363.25789,39 1359.90002,35.6421356 1359.90002,31.5 C1359.90002,27.3578644 1363.25789,24 1367.40002,24 C1371.54216,24 1374.90002,27.3578644 1374.90002,31.5 C1374.90002,33.0016509 1374.45871,34.4002262 1373.69869,35.5731024 Z M1367.40002,36.5 C1370.16145,36.5 1372.40002,34.2614237 1372.40002,31.5 C1372.40002,28.7385763 1370.16145,26.5 1367.40002,26.5 C1364.6386,26.5 1362.40002,28.7385763 1362.40002,31.5 C1362.40002,34.2614237 1364.6386,36.5 1367.40002,36.5 Z" id="lupa" stroke="#FFFFFF" fill="#FFFFFF" stroke-linecap="square"></path>
                    <g id="logo-netflix" transform="translate(58.000000, 22.000000)" fill="#D81F26" fill-rule="nonzero">
                        <path d="M12.6502695,23.2609063 C11.2663164,23.5039336 9.85801563,23.5767969 8.40119922,23.7708594 L3.95770703,10.7564531 L3.95770703,24.329418 C2.57375391,24.4750547 1.31117969,24.6692969 0,24.8635391 L0,0 L3.69078125,0 L8.74107813,14.1073555 L8.74107813,0 L12.6502695,0 L12.6502695,23.2609063 Z M20.2987578,9.10530469 C21.8042695,9.10530469 24.110918,9.03244141 25.4948711,9.03244141 L25.4948711,12.9172852 C23.7708594,12.9172852 21.7556641,12.9172852 20.2987578,12.9901484 L20.2987578,18.7690781 C22.5812383,18.6234414 24.8636289,18.4290195 27.1701875,18.3561563 L27.1701875,22.0951836 L16.4137344,22.9451953 L16.4137344,2.84217094e-14 L27.1701875,2.84217094e-14 L27.1701875,3.88493359 L20.2987578,3.88493359 L20.2987578,9.10530469 Z M41.6172422,3.88502344 L37.5866719,3.88502344 L37.5866719,21.7556641 C36.2754922,21.7556641 34.9643125,21.7556641 33.701918,21.8040898 L33.701918,3.88502344 L29.6713477,3.88502344 L29.6713477,-3.55271368e-14 L41.6174219,-3.55271368e-14 L41.6172422,3.88502344 Z M47.9302031,8.83828906 L53.2477852,8.83828906 L53.2477852,12.7231328 L47.9302031,12.7231328 L47.9302031,21.5371641 L44.1178633,21.5371641 L44.1178633,2.84217094e-14 L54.971707,2.84217094e-14 L54.971707,3.88493359 L47.9302031,3.88493359 L47.9302031,8.83828906 Z M61.284668,18.1377461 C63.4942852,18.1861719 65.7279805,18.3564258 67.889082,18.477625 L67.889082,22.314043 C64.4169805,22.0953633 60.9447891,21.8771328 57.3998242,21.8040898 L57.3998242,0 L61.284668,0 L61.284668,18.1377461 Z M71.1669414,22.5811484 C72.4052578,22.6541016 73.7164375,22.7269648 74.9790117,22.8724219 L74.9790117,-2.84217094e-14 L71.1669414,-2.84217094e-14 L71.1669414,22.5811484 Z M92,0 L87.0709023,11.8247852 L92,24.8635391 C90.5430039,24.6692969 89.0861875,24.4021914 87.6292813,24.1593438 L84.8371172,16.9723828 L81.9965273,23.5767969 C80.587957,23.3337695 79.2282617,23.2609063 77.8202305,23.0666641 L82.8220117,11.6789688 L78.3056563,2.55351296e-15 L82.4817734,2.55351296e-15 L85.0312695,6.53155078 L87.7508398,2.55351296e-15 L92,0 Z" id="logo"></path>
                    </g>
                </g>
            </g>
        </g>
    </g>
</svg>