<?xml version="1.0" encoding="UTF-8"?>
<svg width="92px" height="25px" viewBox="0 0 92 25" version="1.1" xmlns="http://www.w3.org/2000/svg" xmlns:xlink="http://www.w3.org/1999/xlink">
    <!-- Generator: sketchtool 49.3 (51167) - http://www.bohemiancoding.com/sketch -->
    <title>DEB61CED-99C2-46EB-9EBA-D45573E7B22D-42362-00033070AD5246C8</title>
    <desc>Created with sketchtool.</desc>
    <defs></defs>
    <g id="Home" stroke="none" stroke-width="1" fill="none" fill-rule="evenodd">
        <g id="Home-with-hovers" transform="translate(-58.000000, -22.000000)" fill="#D81F26" fill-rule="nonzero">
            <g id="NAV">
                <g id="logo-netflix">
                    <g transform="translate(58.000000, 22.000000)">
                        <path d="M12.6502695,23.2609063 C11.2663164,23.5039336 9.85801563,23.5767969 8.40119922,23.7708594 L3.95770703,10.7564531 L3.95770703,24.329418 C2.57375391,24.4750547 1.31117969,24.6692969 0,24.8635391 L0,0 L3.69078125,0 L8.74107813,14.1073555 L8.74107813,0 L12.6502695,0 L12.6502695,23.2609063 Z M20.2987578,9.10530469 C21.8042695,9.10530469 24.110918,9.03244141 25.4948711,9.03244141 L25.4948711,12.9172852 C23.7708594,12.9172852 21.7556641,12.9172852 20.2987578,12.9901484 L20.2987578,18.7690781 C22.5812383,18.6234414 24.8636289,18.4290195 27.1701875,18.3561563 L27.1701875,22.0951836 L16.4137344,22.9451953 L16.4137344,2.84217094e-14 L27.1701875,2.84217094e-14 L27.1701875,3.88493359 L20.2987578,3.88493359 L20.2987578,9.10530469 Z M41.6172422,3.88502344 L37.5866719,3.88502344 L37.5866719,21.7556641 C36.2754922,21.7556641 34.9643125,21.7556641 33.701918,21.8040898 L33.701918,3.88502344 L29.6713477,3.88502344 L29.6713477,-3.55271368e-14 L41.6174219,-3.55271368e-14 L41.6172422,3.88502344 Z M47.9302031,8.83828906 L53.2477852,8.83828906 L53.2477852,12.7231328 L47.9302031,12.7231328 L47.9302031,21.5371641 L44.1178633,21.5371641 L44.1178633,2.84217094e-14 L54.971707,2.84217094e-14 L54.971707,3.88493359 L47.9302031,3.88493359 L47.9302031,8.83828906 Z M61.284668,18.1377461 C63.4942852,18.1861719 65.7279805,18.3564258 67.889082,18.477625 L67.889082,22.314043 C64.4169805,22.0953633 60.9447891,21.8771328 57.3998242,21.8040898 L57.3998242,0 L61.284668,0 L61.284668,18.1377461 Z M71.1669414,22.5811484 C72.4052578,22.6541016 73.7164375,22.7269648 74.9790117,22.8724219 L74.9790117,-2.84217094e-14 L71.1669414,-2.84217094e-14 L71.1669414,22.5811484 Z M92,0 L87.0709023,11.8247852 L92,24.8635391 C90.5430039,24.6692969 89.0861875,24.4021914 87.6292813,24.1593438 L84.8371172,16.9723828 L81.9965273,23.5767969 C80.587957,23.3337695 79.2282617,23.2609063 77.8202305,23.0666641 L82.8220117,11.6789688 L78.3056563,2.55351296e-15 L82.4817734,2.55351296e-15 L85.0312695,6.53155078 L87.7508398,2.55351296e-15 L92,0 Z" id="logo"></path>
                    </g>
                </g>
            </g>
        </g>
    </g>
</svg>