<?xml version="1.0" encoding="UTF-8"?>
<svg width="268px" height="34px" viewBox="0 0 268 34" version="1.1" xmlns="http://www.w3.org/2000/svg" xmlns:xlink="http://www.w3.org/1999/xlink">
    <!-- Generator: sketchtool 49.3 (51167) - http://www.bohemiancoding.com/sketch -->
    <title>6480A2CC-26B5-4AC9-A96A-571A54CC60EF-42362-00033070B2A62F4D</title>
    <desc>Created with sketchtool.</desc>
    <defs>
        <rect id="path-1" x="0" y="0" width="268" height="34"></rect>
    </defs>
    <g id="Home" stroke="none" stroke-width="1" fill="none" fill-rule="evenodd">
        <g id="Home-with-hovers" transform="translate(-1113.000000, -17.000000)">
            <g id="search-input" transform="translate(1113.000000, 17.000000)">
                <g>
                    <g id="Rectangle">
                        <use fill="#1D1C1D" fill-rule="evenodd" xlink:href="#path-1"></use>
                        <rect stroke="#DDDDDD" stroke-width="1" x="0.5" y="0.5" width="267" height="33"></rect>
                    </g>
                    <text id="Titles,-people,-genr" font-family="Helvetica" font-size="15" font-weight="normal" letter-spacing="-0.200000003" fill="#7F7F7F">
                        <tspan x="38" y="23">Titles, people, genre</tspan>
                        <tspan x="169.166211" y="23">s</tspan>
                    </text>
                    <path d="M37.5,8.5 L37.5,25.5" id="Line" stroke="#FFFFFF" stroke-linecap="square"></path>
                    <g id="icon-lupa" transform="translate(5.000000, 7.000000)" fill="#FFFFFF">
                        <path d="M14.6986915,11.5731024 L19.1230209,15.9974319 C19.8961365,16.9392697 19.8961365,17.7967464 19.1230209,18.569862 C18.3499053,19.3429776 17.4924286,19.3429776 16.5505908,18.569862 L11.9522403,14.1070871 C10.8949193,14.6767378 9.68522284,15 8.40002441,15 C4.25788879,15 0.900024414,11.6421356 0.900024414,7.5 C0.900024414,3.35786438 4.25788879,0 8.40002441,0 C12.54216,0 15.9000244,3.35786438 15.9000244,7.5 C15.9000244,9.00165086 15.4587056,10.4002262 14.6986915,11.5731024 Z M8.40002441,12.5 C11.1614482,12.5 13.4000244,10.2614237 13.4000244,7.5 C13.4000244,4.73857625 11.1614482,2.5 8.40002441,2.5 C5.63860067,2.5 3.40002441,4.73857625 3.40002441,7.5 C3.40002441,10.2614237 5.63860067,12.5 8.40002441,12.5 Z" id="lupa"></path>
                    </g>
                </g>
            </g>
        </g>
    </g>
</svg>