<?xml version="1.0" encoding="UTF-8"?>
<svg width="21px" height="21px" viewBox="0 0 21 21" version="1.1" xmlns="http://www.w3.org/2000/svg" xmlns:xlink="http://www.w3.org/1999/xlink">
    <!-- Generator: sketchtool 49.3 (51167) - http://www.bohemiancoding.com/sketch -->
    <title>4D100A3E-ED2A-4B4E-B269-7C9D525FC618-42362-00033070AD520385</title>
    <desc>Created with sketchtool.</desc>
    <defs></defs>
    <g id="Home" stroke="none" stroke-width="1" fill="none" fill-rule="evenodd" stroke-linecap="square">
        <g id="Home-with-hovers" transform="translate(-1359.000000, -23.000000)" fill="#FFFFFF" stroke="#FFFFFF">
            <g id="NAV">
                <g id="lupa">
                    <path d="M1373.69869,35.5731024 L1378.12302,39.9974319 C1378.89614,40.9392697 1378.89614,41.7967464 1378.12302,42.569862 C1377.34991,43.3429776 1376.49243,43.3429776 1375.55059,42.569862 L1370.95224,38.1070871 C1369.89492,38.6767378 1368.68522,39 1367.40002,39 C1363.25789,39 1359.90002,35.6421356 1359.90002,31.5 C1359.90002,27.3578644 1363.25789,24 1367.40002,24 C1371.54216,24 1374.90002,27.3578644 1374.90002,31.5 C1374.90002,33.0016509 1374.45871,34.4002262 1373.69869,35.5731024 Z M1367.40002,36.5 C1370.16145,36.5 1372.40002,34.2614237 1372.40002,31.5 C1372.40002,28.7385763 1370.16145,26.5 1367.40002,26.5 C1364.6386,26.5 1362.40002,28.7385763 1362.40002,31.5 C1362.40002,34.2614237 1364.6386,36.5 1367.40002,36.5 Z"></path>
                </g>
            </g>
        </g>
    </g>
</svg>